<svg   version="1.1" width="140px" height="140px"  xmlns="http://www.w3.org/2000/svg" viewBox="0 0 5 5"><rect x="0" y="0" width="1" height="1" fill="rgb(224, 205, 224)" opacity="0.8" /><rect x="0" y="1" width="1" height="1" fill="rgb(197, 204, 197)" opacity="0.8" /><rect x="0" y="2" width="1" height="1" fill="rgb(250, 189, 250)" opacity="0.8" /><rect x="0" y="3" width="1" height="1" fill="rgb(224, 205, 224)" opacity="0.8" /><rect x="0" y="4" width="1" height="1" fill="rgb(250, 189, 250)" opacity="0.8" /><rect x="1" y="0" width="1" height="1" fill="rgb(197, 204, 197)" opacity="0.8" /><rect x="1" y="1" width="1" height="1" fill="rgb(224, 205, 224)" opacity="0.8" /><rect x="1" y="2" width="1" height="1" fill="rgb(250, 189, 250)" opacity="0.8" /><rect x="1" y="3" width="1" height="1" fill="rgb(224, 205, 224)" opacity="0.8" /><rect x="1" y="4" width="1" height="1" fill="rgb(224, 205, 224)" opacity="0.8" /><rect x="2" y="0" width="1" height="1" fill="rgb(224, 205, 224)" opacity="0.8" /><rect x="2" y="1" width="1" height="1" fill="rgb(224, 205, 224)" opacity="0.8" /><rect x="2" y="2" width="1" height="1" fill="rgb(250, 189, 250)" opacity="0.8" /><rect x="2" y="3" width="1" height="1" fill="rgb(197, 204, 197)" opacity="0.8" /><rect x="2" y="4" width="1" height="1" fill="rgb(224, 205, 224)" opacity="0.8" /><rect x="3" y="0" width="1" height="1" fill="rgb(197, 204, 197)" opacity="0.8" /><rect x="3" y="1" width="1" height="1" fill="rgb(224, 205, 224)" opacity="0.8" /><rect x="3" y="2" width="1" height="1" fill="rgb(250, 189, 250)" opacity="0.8" /><rect x="3" y="3" width="1" height="1" fill="rgb(224, 205, 224)" opacity="0.8" /><rect x="3" y="4" width="1" height="1" fill="rgb(224, 205, 224)" opacity="0.8" /><rect x="4" y="0" width="1" height="1" fill="rgb(224, 205, 224)" opacity="0.8" /><rect x="4" y="1" width="1" height="1" fill="rgb(197, 204, 197)" opacity="0.8" /><rect x="4" y="2" width="1" height="1" fill="rgb(250, 189, 250)" opacity="0.8" /><rect x="4" y="3" width="1" height="1" fill="rgb(224, 205, 224)" opacity="0.8" /><rect x="4" y="4" width="1" height="1" fill="rgb(250, 189, 250)" opacity="0.8" /></svg>